<?xml version="1.0" encoding="utf-8"?>
<!-- Generator: Adobe Illustrator 24.2.1, SVG Export Plug-In . SVG Version: 6.00 Build 0)  -->
<svg version="1.1" id="Calque_1" xmlns="http://www.w3.org/2000/svg" xmlns:xlink="http://www.w3.org/1999/xlink" x="0px" y="0px"
	 viewBox="0 0 104 67.7" style="enable-background:new 0 0 104 67.7;" xml:space="preserve">
<style type="text/css">
	.st0{fill:#FFFFFF;}
</style>
<g>
	<path class="st0" d="M25.2,16.5l10.6,27.3h44.8l5.8-20.2"/>
	<path class="st0" d="M9.8,11.4"/>
	<path d="M80.6,45.8H35.8c-0.8,0-1.6-0.5-1.9-1.3L23.6,17.9c-6.8-4.1-13.8-4.5-13.8-4.5c-1.1-0.1-2-1-1.9-2.1c0.1-1.1,1-2,2.1-1.9
		c0.3,0,8.5,0.4,16.4,5.4c0.4,0.2,0.6,0.6,0.8,1l10.1,26.1h41.9l5.4-18.7c0.3-1.1,1.4-1.7,2.5-1.4c1.1,0.3,1.7,1.4,1.4,2.5
		l-5.8,20.2C82.3,45.3,81.5,45.8,80.6,45.8z"/>
</g>
<circle cx="45.3" cy="51.4" r="4.4"/>
<circle cx="70.2" cy="51.4" r="4.4"/>
<g>
	<g>
		<path d="M31.7,21.6h4.7c2.7,0,4.5,1.7,5.5,5.7c1,4.1-0.1,5.7-2.2,5.7h-0.9l2.2,6.9h-2.7L31.7,21.6z M37.7,29.3h0.4
			c0.6,0,1-0.2,0.5-2c-0.4-1.3-0.9-2-1.7-2h-0.4L37.7,29.3z"/>
		<path d="M48.7,37.1h-1.9l0.3,2.8h-2.8l-1.7-18.2H47l5.3,18.2h-2.8L48.7,37.1z M45.5,25.6L45.5,25.6l0.7,7.5h1.4L45.5,25.6z"/>
		<path d="M56.3,21.6h3.3l0,18.2h-2.9l-2.3-11.2h0l0.8,11.2h-2.5l-2.1-18.2h3.9l2.3,11.1h0L56.3,21.6z"/>
		<path d="M61,21.6h3.6l-1.2,18.2h-2.7L61,21.6z"/>
		<path d="M65.7,21.6h7.7l-0.8,4.1h-3.9l-0.4,2.8h3.5l-0.7,4h-3.3l-0.4,3.2H71l-0.8,4.1h-6L65.7,21.6z"/>
		<path d="M74.6,21.6H80c2.5,0,3,1.7,2,4.8c-0.9,2.9-2.1,4.1-3.2,4.4l0,0.1c0.6,0.1,1,0.6,1,1.5c0,0.8-0.3,2-0.7,3.1l-0.5,1.5
			c-0.3,1-0.5,1.9-0.5,2.1c0,0.3,0,0.4,0.1,0.5l-0.1,0.3h-2.9c-0.1-0.4,0.3-1.7,0.5-2.6s0.4-1.8,0.7-2.7c0.4-1.6,0.2-1.8-0.3-1.8
			h-0.6l-1.8,7.2H71L74.6,21.6z M76.3,29.3h0.5c0.5,0,1.2-0.4,1.7-2.1c0.4-1.5,0-1.9-0.8-1.9h-0.4L76.3,29.3z"/>
	</g>
</g>
</svg>
