<?xml version="1.0" encoding="utf-8"?>
<!-- Generator: Adobe Illustrator 24.2.1, SVG Export Plug-In . SVG Version: 6.00 Build 0)  -->
<svg version="1.1" id="Calque_1" xmlns="http://www.w3.org/2000/svg" xmlns:xlink="http://www.w3.org/1999/xlink" x="0px" y="0px"
	 viewBox="0 0 994 1080" style="enable-background:new 0 0 994 1080;" xml:space="preserve">
<style type="text/css">
	.st0{fill:none;stroke:#FFFFFF;stroke-width:109;stroke-linecap:round;stroke-linejoin:round;stroke-miterlimit:10;}
</style>
<g>
	<path d="M489.7,236.2c-130.5,0-261.1,0-391.6,0.1c-10.1,0-19.6-2-25.6-10.6c-3.4-4.8-6.4-11-6.6-16.7c-0.8-22-0.7-44-0.2-66
		c0.4-16.2,12.3-27.7,28.6-27.9c24.3-0.4,48.6-0.2,72.9-0.2c50.3,0,100.6-0.1,150.8,0.1c4.1,0,6-1.3,7.7-5
		c5.2-11.5,10.6-22.9,16.6-34c7.8-14.1,20.6-20.7,36.4-21.7c2-0.1,4-0.2,6-0.2c70.3,0,140.5,0.1,210.8-0.1
		c22.1-0.1,37.8,9.5,46.9,29.7c3.7,8.3,8.1,16.4,11.5,24.8c2.1,5.1,5,6.5,10.5,6.5c72.4-0.2,144.8-0.1,217.3-0.2
		c9.4,0,18.1,1.7,25,8.9c5,5.3,8,11.5,8.1,18.8c0.2,21.2,0.5,42.3,0.1,63.5c-0.3,19.2-12.3,30.2-32,30.2
		C751.7,236.2,620.7,236.2,489.7,236.2z"/>
	<path d="M126.3,297.2c0,1.3-0.1,2.3,0,3.3c2.4,38.5,4.8,77.1,7.1,115.6c2.8,45,5.4,90,8.2,135.1c2.2,35.6,4.6,71.1,6.8,106.6
		c3.1,50.3,6.1,100.7,9.2,151c2.6,42,5.3,84.1,7.8,126.1c0.9,16.4,3.5,32.3,12.5,46.2c18.8,29.2,45.5,44.9,80.7,44.9
		c154.3,0,308.7,0,463,0c20.2,0,38.8-5.1,55.1-17.2c20.6-15.2,34.2-35.1,36.8-60.9c2.6-25,3.5-50.1,5.1-75.2
		c2.6-41.2,5.1-82.4,7.6-123.6c2.4-39.5,4.9-79.1,7.4-118.6c2.2-35.4,4.2-70.8,6.4-106.2c2.5-39.9,5-79.7,7.6-119.6
		c1.6-26.1,3.3-52.2,4.9-78.2c0.6-9.7,1-19.5,1.6-29.4C611.3,297.2,369.1,297.2,126.3,297.2z"/>
</g>
<g>
	<line class="st0" x1="695.8" y1="469.4" x2="675.8" y2="869.4"/>
	<line class="st0" x1="490.1" y1="469.4" x2="490.1" y2="869.4"/>
	<line class="st0" x1="283.5" y1="469.4" x2="303.5" y2="869.4"/>
</g>
</svg>
